# xmcd
#
# Track frame offsets:
#	150
#	16934
#	32138
#	46770
#	65508
#	82232
#	98926
#	115290
#	136167
#	154680
#	172110
#	189068
#	209546
#	223440
#	242081
#	257701
#	274580
#	292769
#	308040
#	323066
#
# Disc length: 4489
#
# Revision: 3
# Processed by: cddbd v1.5.1PL0 Copyright (c) Steve Scherf et al.
# Submitted via: VisiTrax 2.9.5.180 - For more info visit www.synapsa.com
# Normalized: r2:DSETVAR1
#
DISCID=1f118714
DTITLE=Various Artist - CDX 322 July 2003
DYEAR=2003
DGENRE=Country
TTITLE0=Jennifer Hanson - Half a heart tattoo
TTITLE1=Scotty Emerick and Toby Keith - I can't take you anywhere
TTITLE2=Sawyer Brown - I'll be around
TTITLE3=Jimmy Wayne - Love you this much
TTITLE4=Billy Dean - I'm in love with you
TTITLE5=Sammy Kershaw - I've never been anywhere
TTITLE6=Jo Dee Messina - I wish
TTITLE7=Travis Tritt - Lonesome, on'ry and mean
TTITLE8=Mila Mason - Maybe, maybe not
TTITLE9=Terri Clark - Pain to kill
TTITLE10=Chalee Tennison - Parading in the rain
TTITLE11=Blake Shelton - Playboys of the Southwestern world
TTITLE12=Randy Travis - Pray for the fish
TTITLE13=Ryan Tyler - Run, run, run
TTITLE14=Smokin' Armadillos - You were a mountain
TTITLE15=Connie Smith/Sharon White/Barbara Fairchild - Closer to home
TTITLE16=Cary Campbell - Dance 'til dawn
TTITLE17=Yonder Mountain String Band/Benny Galloway - Eveyrtime
TTITLE18=Cerrito - Let's be lonely together
TTITLE19=TC Taylor - Mexican radio
EXTD=
EXTT0=
EXTT1=
EXTT2=
EXTT3=
EXTT4=
EXTT5=
EXTT6=
EXTT7=
EXTT8=
EXTT9=
EXTT10=
EXTT11=
EXTT12=
EXTT13=
EXTT14=
EXTT15=
EXTT16=
EXTT17=
EXTT18=
EXTT19=
PLAYORDER=
